<?xml version="1.0" encoding="iso-8859-1"?>
<!-- Uploaded to: SVG Repo, www.svgrepo.com, Generator: SVG Repo Mixer Tools -->
<svg fill="#000000" height="800px" width="800px" version="1.1" id="Layer_1" xmlns="http://www.w3.org/2000/svg" xmlns:xlink="http://www.w3.org/1999/xlink" 
	 viewBox="0 0 511.999 511.999" xml:space="preserve">
<g>
	<g>
		<path d="M11.805,214.091c7.875,25.01,19.58,48.669,34.845,70.245l14.21,2.183c1.56,0.239,3.271,0.361,5.08,0.361
			c10.298,0,14.662-3.664,21.893-9.736c8.473-7.114,20.078-16.857,41.452-16.857c21.373,0,32.976,9.743,41.449,16.857
			c7.231,6.071,11.594,9.736,21.892,9.736s14.661-3.664,21.892-9.736c8.473-7.114,20.077-16.857,41.451-16.857
			s32.977,9.743,41.451,16.857c7.231,6.071,11.595,9.736,21.894,9.736c10.3,0,14.664-3.664,21.895-9.736
			c8.473-7.115,20.078-16.857,41.451-16.857c21.375,0,32.979,9.742,41.453,16.856c7.232,6.072,11.596,9.737,21.898,9.737
			c1.822,0,3.543-0.124,5.116-0.367l14.248-2.211c15.253-21.567,26.95-45.215,34.821-70.21H11.805z"/>
	</g>
</g>
<g>
	<g>
		<path d="M438.092,316.813c-16.441-2.037-26.176-10.193-33.536-16.373c-7.232-6.072-11.596-9.737-21.896-9.737
			c-10.298,0-14.662,3.664-21.893,9.736c-8.473,7.114-20.078,16.857-41.453,16.857c-21.374,0-32.979-9.743-41.452-16.857
			c-7.231-6.071-11.595-9.736-21.893-9.736c-10.298,0-14.662,3.664-21.893,9.736c-8.473,7.114-20.077,16.857-41.45,16.857
			c-21.374,0-32.977-9.743-41.45-16.858c-7.231-6.07-11.594-9.735-21.891-9.735c-10.299,0-14.663,3.664-21.894,9.736
			c-7.354,6.174-17.077,14.321-33.49,16.368c0.363,0.367,0.715,0.741,1.081,1.107c17.928,17.927,38.05,32.859,59.754,44.564h-15.133
			c-20.313,0-36.84,16.525-36.84,36.835c0,20.313,16.527,36.839,36.84,36.839h272.794c20.313,0,36.84-16.526,36.84-36.839
			c0-20.31-16.527-36.835-36.84-36.835h-15.133c21.704-11.705,41.826-26.637,59.754-44.564
			C437.381,317.551,437.732,317.178,438.092,316.813z"/>
	</g>
</g>
<g>
	<g>
		<path d="M0,75.847v61.05c0,15.865,1.452,31.504,4.257,46.781h503.485c2.805-15.276,4.257-30.916,4.257-46.781v-61.05H0z
			 M85.406,147.644c-9.876,0-17.882-8.005-17.882-17.882c0-9.877,8.006-17.882,17.882-17.882c9.876,0,17.882,8.005,17.882,17.882
			C103.288,139.638,95.282,147.644,85.406,147.644z M153.643,147.644c-9.876,0-17.882-8.005-17.882-17.882
			c0-9.877,8.006-17.882,17.882-17.882c9.876,0,17.882,8.005,17.882,17.882C171.525,139.638,163.519,147.644,153.643,147.644z
			 M221.881,147.644c-9.876,0-17.882-8.005-17.882-17.882c0-9.877,8.006-17.882,17.882-17.882s17.882,8.005,17.882,17.882
			C239.763,139.638,231.757,147.644,221.881,147.644z M290.119,147.644c-9.876,0-17.882-8.005-17.882-17.882
			c0-9.877,8.006-17.882,17.882-17.882s17.882,8.005,17.882,17.882C308.001,139.638,299.995,147.644,290.119,147.644z
			 M358.356,147.644c-9.876,0-17.882-8.005-17.882-17.882c0-9.877,8.006-17.882,17.882-17.882s17.882,8.005,17.882,17.882
			C376.238,139.638,368.233,147.644,358.356,147.644z M426.594,147.644c-9.876,0-17.882-8.005-17.882-17.882
			c0-9.877,8.006-17.882,17.882-17.882c9.876,0,17.882,8.005,17.882,17.882C444.477,139.638,436.47,147.644,426.594,147.644z"/>
	</g>
</g>
</svg>