<?xml version="1.0" encoding="utf-8"?>
<!-- Uploaded to: SVG Repo, www.svgrepo.com, Generator: SVG Repo Mixer Tools -->
<svg width="800px" height="800px" viewBox="0 0 1024 1024" class="icon"  version="1.1" xmlns="http://www.w3.org/2000/svg"><path d="M292.7 881V778.7h-54.5V881l22.2 46.1c2 4.2 8 4.2 10 0l22.3-46.1z" fill="#D8A128" /><path d="M265.5 935.7c-4.3 0-8.1-2.4-10-6.3l-22.8-47.2v-109h65.5v109.1l-22.8 47.2c-1.8 3.8-5.6 6.2-9.9 6.2z m-21.7-55.9l21.7 44.9h0.1l21.7-45v-95.6h-43.5v95.7z" fill="#333336" /><path d="M292.7 874.6h-54.5V626.3c0-10.8 8.8-19.6 19.6-19.6h15.3c10.8 0 19.6 8.8 19.6 19.6v248.3z" fill="#D5D9CF" /><path d="M298.2 880.1h-65.5V626.3c0-13.8 11.3-25.1 25.1-25.1h15.3c13.8 0 25.1 11.3 25.1 25.1v253.8z m-54.4-11h43.5V626.3c0-7.8-6.3-14.1-14.1-14.1h-15.3c-7.8 0-14.1 6.3-14.1 14.1v242.8z" fill="#333336" /><path d="M292.7 650h-54.5v-23.7c0-10.8 8.8-19.6 19.6-19.6h15.3c10.8 0 19.6 8.8 19.6 19.6V650z" fill="#D8A128" /><path d="M298.2 655.5h-65.5v-29.2c0-13.8 11.3-25.1 25.1-25.1h15.3c13.8 0 25.1 11.3 25.1 25.1v29.2z m-54.4-11h43.5v-18.2c0-7.8-6.3-14.1-14.1-14.1h-15.3c-7.8 0-14.1 6.3-14.1 14.1v18.2zM277.1 913.5H254l6.6 13.6c2 4.2 8 4.2 10 0l6.5-13.6zM469.3 934.7c-3 0-5.5-2.5-5.5-5.5V856c0-3 2.5-5.5 5.5-5.5s5.5 2.5 5.5 5.5v73.2c0 3-2.5 5.5-5.5 5.5z" fill="#333336" /><path d="M454.6 136c0-23.3-18.9-42.2-42.2-42.2s-42.2 18.9-42.2 42.2c0 14.3 7.1 26.8 17.9 34.5v102.9h46.8V171.7c11.8-7.5 19.7-20.7 19.7-35.7z" fill="#FFD632" /><path d="M440.4 278.8h-57.8V173.2c-11.3-9-17.9-22.7-17.9-37.2 0-26.3 21.4-47.7 47.7-47.7 26.3 0 47.7 21.4 47.7 47.7 0 15.4-7.3 29.7-19.7 38.6v104.2z m-46.8-11h35.8v-99.2l2.6-1.6c10.7-6.8 17.2-18.4 17.2-31.1 0-20.2-16.5-36.7-36.7-36.7-20.2 0-36.7 16.5-36.7 36.7 0 11.9 5.8 23.1 15.6 30l2.3 1.6v100.3z" fill="#333336" /><path d="M321.4 381.9v357.3H214.3V807h23.5c4-11.6 15-20 28-20s24 8.3 28 20H370V381.9h-48.6z" fill="#FFD632" /><path d="M375.4 812.5h-85.7l-1.3-3.7c-3.3-9.7-12.5-16.3-22.8-16.3s-19.4 6.5-22.8 16.3l-1.3 3.7h-32.9v-78.8h107.2V376.4h59.5v436.1z m-78-11h67.1V387.4H327v357.3H219.8v56.8H234c5.8-12.1 18-20 31.7-20 13.6 0 25.9 7.9 31.7 20z" fill="#333336" /><path d="M452.5 381.9H501v460.9c0 21-17 38-38 38-5.8 0-10.6-4.7-10.6-10.6V381.9z" fill="#FFD632" /><path d="M463 886.2c-8.9 0-16.1-7.2-16.1-16.1V376.4h59.5v466.4c0.1 23.9-19.4 43.4-43.4 43.4z m-5-498.8v482.8c0 2.8 2.3 5.1 5.1 5.1 17.9 0 32.5-14.6 32.5-32.5V387.4H458z" fill="#333336" /><path d="M509.2 381.9c4-11.4 6-23.7 5.8-36.4-1.2-55.6-46.8-100.8-102.4-101.4-57.9-0.7-105 46-105 103.7 0 12 2 23.5 5.8 34.2l72.2 159.8c10 22.1 41.4 22.1 51.4 0l72.2-159.9z" fill="#68A240" /><path d="M411.3 563.8c-13.4 0-25.2-7.6-30.7-19.8l-72.3-160-0.1-0.2c-4-11.6-6.1-23.7-6.1-36 0-29.4 11.5-57 32.5-77.7 20.9-20.7 48.6-31.8 78.1-31.5 28.3 0.3 55.1 11.6 75.4 31.7 20.3 20.1 31.8 46.8 32.4 75.1 0.3 13.1-1.8 26.1-6.1 38.4l-0.2 0.5L442 543.9c-5.5 12.3-17.3 19.9-30.7 19.9z m-92.8-184l72.1 159.6c3.7 8.2 11.7 13.4 20.7 13.4s17-5.1 20.7-13.4l72.1-159.6c3.8-11 5.6-22.5 5.4-34.3-0.5-25.5-10.9-49.4-29.2-67.5s-42.3-28.2-67.8-28.5c-26.4-0.3-51.4 9.7-70.2 28.3-18.8 18.6-29.2 43.4-29.2 69.9 0 11 1.8 21.8 5.4 32.1z" fill="#333336" /><path d="M411.3 347.7m-50.2 0a50.2 50.2 0 1 0 100.4 0 50.2 50.2 0 1 0-100.4 0Z" fill="#FFD632" /><path d="M411.3 403.4c-30.7 0-55.7-25-55.7-55.7s25-55.7 55.7-55.7 55.7 25 55.7 55.7-25 55.7-55.7 55.7z m0-100.3c-24.6 0-44.7 20-44.7 44.7s20 44.7 44.7 44.7 44.7-20 44.7-44.7-20-44.7-44.7-44.7z" fill="#333336" /><path d="M628.4 467.8c1.8-0.1 3.7-0.1 5.6-0.1 68.1 0 123.3 55.2 123.3 123.3S702 714.2 634 714.2c-1.9 0-3.7 0-5.6-0.1V803c1.8 0 3.7 0.1 5.6 0.1 117.2 0 212.1-95 212.1-212.1s-95-212.1-212.1-212.1c-1.9 0-3.7 0-5.6 0.1v88.8z" fill="#68A240" /><path d="M634 809.1c-1.9 0-3.8 0-5.7-0.1l-5.9-0.1V707.8l6.3 0.3c1.9 0.1 3.6 0.1 5.3 0.1 64.6 0 117.2-52.6 117.2-117.2S698.6 473.7 634 473.7c-1.7 0-3.4 0-5.3 0.1l-6.3 0.3V373l5.9-0.2c1.9 0 3.8-0.1 5.7-0.1 120.3 0 218.2 97.9 218.2 218.2-0.1 120.4-97.9 218.2-218.2 218.2z m0.4-88.9V797c113.4-0.3 205.6-92.6 205.6-206.1s-92.2-205.8-205.6-206.1v76.8c71.1 0.3 128.8 58.2 128.8 129.3S705.5 720 634.4 720.2z" fill="#333336" /><path d="M649.4 591m-47 0a47 47 0 1 0 94 0 47 47 0 1 0-94 0Z" fill="#FFD632" /><path d="M649.4 644c-29.2 0-53-23.8-53-53s23.8-53 53-53 53 23.8 53 53-23.8 53-53 53z m0-94c-22.6 0-40.9 18.4-40.9 40.9 0 22.6 18.4 40.9 40.9 40.9s40.9-18.4 40.9-40.9-18.4-40.9-40.9-40.9z" fill="#333336" /><path d="M411.3 347.7m-22.4 0a22.4 22.4 0 1 0 44.8 0 22.4 22.4 0 1 0-44.8 0Z" fill="#D5D9CF" /><path d="M411.3 375.6c-15.4 0-27.9-12.5-27.9-27.9s12.5-27.9 27.9-27.9 27.9 12.5 27.9 27.9-12.5 27.9-27.9 27.9z m0-44.8c-9.3 0-16.9 7.6-16.9 16.9s7.6 16.9 16.9 16.9 16.9-7.6 16.9-16.9-7.6-16.9-16.9-16.9z" fill="#333336" /><path d="M205.4 836.6H191c-7.5 0-13.6-6.1-13.6-13.6V721.7c0-7.5 6.1-13.6 13.6-13.6h14.4c7.5 0 13.6 6.1 13.6 13.6V823c0.1 7.5-6 13.6-13.6 13.6z" fill="#68A240" /><path d="M205.4 842.1H191c-10.6 0-19.1-8.6-19.1-19.1V721.7c0-10.6 8.6-19.1 19.1-19.1h14.4c10.6 0 19.1 8.6 19.1 19.1V823c0.1 10.5-8.5 19.1-19.1 19.1zM191 713.5c-4.5 0-8.1 3.6-8.1 8.1V823c0 4.5 3.6 8.1 8.1 8.1h14.4c4.5 0 8.1-3.6 8.1-8.1V721.7c0-4.5-3.6-8.1-8.1-8.1H191z" fill="#333336" /><path d="M568.6 841.8V340.1c0-4.8 3.9-8.8 8.8-8.8h69.1c4.8 0 8.8 3.9 8.8 8.8v501.6c0 4.8-3.9 8.8-8.8 8.8h-69.1c-4.9 0-8.8-3.9-8.8-8.7z" fill="#68A240" /><path d="M645.6 856.6h-67.4c-8.6 0-15.6-7-15.6-15.6V341c0-8.6 7-15.6 15.6-15.6h67.4c8.6 0 15.6 7 15.6 15.6v499.9c0 8.7-7 15.7-15.6 15.7z m-67.4-519.2c-2 0-3.6 1.6-3.6 3.6v499.9c0 2 1.6 3.6 3.6 3.6h67.4c2 0 3.6-1.6 3.6-3.6V341c0-2-1.6-3.6-3.6-3.6h-67.4z" fill="#333336" /><path d="M602.4 385.5h-33.8c-2.4 0-4.4-2-4.4-4.4s2-4.4 4.4-4.4h33.8c2.4 0 4.4 2 4.4 4.4s-2 4.4-4.4 4.4zM590.7 420.7h-22.1c-2.4 0-4.4-2-4.4-4.4 0-2.4 2-4.4 4.4-4.4h22.1c2.4 0 4.4 2 4.4 4.4 0 2.4-2 4.4-4.4 4.4zM602.4 455.8h-33.8c-2.4 0-4.4-2-4.4-4.4 0-2.4 2-4.4 4.4-4.4h33.8c2.4 0 4.4 2 4.4 4.4 0 2.4-2 4.4-4.4 4.4zM590.7 490.9h-22.1c-2.4 0-4.4-2-4.4-4.4 0-2.4 2-4.4 4.4-4.4h22.1c2.4 0 4.4 2 4.4 4.4 0 2.4-2 4.4-4.4 4.4zM602.4 526h-33.8c-2.4 0-4.4-2-4.4-4.4s2-4.4 4.4-4.4h33.8c2.4 0 4.4 2 4.4 4.4s-2 4.4-4.4 4.4zM590.7 561.1h-22.1c-2.4 0-4.4-2-4.4-4.4s2-4.4 4.4-4.4h22.1c2.4 0 4.4 2 4.4 4.4s-2 4.4-4.4 4.4zM602.4 596.2h-33.8c-2.4 0-4.4-2-4.4-4.4 0-2.4 2-4.4 4.4-4.4h33.8c2.4 0 4.4 2 4.4 4.4 0 2.4-2 4.4-4.4 4.4zM590.7 631.3h-22.1c-2.4 0-4.4-2-4.4-4.4 0-2.4 2-4.4 4.4-4.4h22.1c2.4 0 4.4 2 4.4 4.4 0 2.4-2 4.4-4.4 4.4zM602.4 666.4h-33.8c-2.4 0-4.4-2-4.4-4.4 0-2.4 2-4.4 4.4-4.4h33.8c2.4 0 4.4 2 4.4 4.4 0 2.4-2 4.4-4.4 4.4zM590.7 701.5h-22.1c-2.4 0-4.4-2-4.4-4.4 0-2.4 2-4.4 4.4-4.4h22.1c2.4 0 4.4 2 4.4 4.4 0 2.4-2 4.4-4.4 4.4zM602.4 736.6h-33.8c-2.4 0-4.4-2-4.4-4.4 0-2.4 2-4.4 4.4-4.4h33.8c2.4 0 4.4 2 4.4 4.4 0 2.4-2 4.4-4.4 4.4zM590.7 771.7h-22.1c-2.4 0-4.4-2-4.4-4.4 0-2.4 2-4.4 4.4-4.4h22.1c2.4 0 4.4 2 4.4 4.4 0 2.4-2 4.4-4.4 4.4z" fill="#333336" /><path d="M602.4 806.8h-33.8c-2.4 0-4.4-2-4.4-4.4s2-4.4 4.4-4.4h33.8c2.4 0 4.4 2 4.4 4.4s-2 4.4-4.4 4.4z" fill="#333336" /><path d="M817.1 596.2c-2.4 0-4.3-1.9-4.4-4.3-0.1-2.4 1.8-4.4 4.3-4.5l29-0.8h0.1c2.4 0 4.3 1.9 4.4 4.3 0.1 2.4-1.8 4.4-4.3 4.5l-29 0.8h-0.1zM837.8 650.2c-0.3 0-0.7 0-1-0.1l-24.8-6c-2.4-0.6-3.8-2.9-3.2-5.3 0.6-2.4 2.9-3.8 5.3-3.2l24.8 6c2.4 0.6 3.8 2.9 3.2 5.3-0.6 2-2.4 3.3-4.3 3.3zM815.5 701c-0.7 0-1.4-0.2-2.1-0.5l-21.7-11.9c-2.1-1.2-2.9-3.8-1.7-6 1.2-2.1 3.8-2.9 6-1.7l21.7 11.9c2.1 1.2 2.9 3.8 1.7 6-0.8 1.4-2.3 2.2-3.9 2.2zM780.9 744.4c-1.1 0-2.2-0.4-3-1.2l-22.3-21.3c-1.8-1.7-1.8-4.5-0.1-6.2 1.7-1.8 4.5-1.8 6.2-0.1l22.3 21.3c1.8 1.7 1.8 4.5 0.1 6.2-0.9 0.8-2.1 1.3-3.2 1.3zM736.2 777.2c-1.5 0-2.9-0.8-3.8-2.1l-14.3-23.5c-1.3-2.1-0.6-4.8 1.5-6 2.1-1.3 4.8-0.6 6 1.5l14.3 23.5c1.3 2.1 0.6 4.8-1.5 6-0.6 0.4-1.4 0.6-2.2 0.6zM684.5 797.4c-1.9 0-3.6-1.2-4.2-3.2l-7.5-25.8c-0.7-2.3 0.7-4.8 3-5.4 2.3-0.7 4.8 0.7 5.4 3l7.5 25.8c0.7 2.3-0.7 4.8-3 5.4-0.3 0.2-0.8 0.2-1.2 0.2zM804.8 550.3c-1.9 0-3.6-1.2-4.2-3.2-0.7-2.3 0.7-4.8 3-5.4l33.8-9.9c2.3-0.7 4.8 0.7 5.4 3 0.7 2.3-0.7 4.8-3 5.4l-33.8 9.9c-0.4 0.1-0.8 0.2-1.2 0.2zM793.8 503.4c-1.5 0-2.9-0.8-3.8-2.1-1.3-2.1-0.6-4.8 1.5-6l23.3-14.2c2.1-1.3 4.8-0.6 6 1.5 1.3 2.1 0.6 4.8-1.5 6L796 502.8c-0.6 0.4-1.4 0.6-2.2 0.6zM763.8 465.7c-1.1 0-2.2-0.4-3-1.2-1.8-1.7-1.8-4.5-0.1-6.2L780 438c1.7-1.8 4.5-1.8 6.2-0.1 1.8 1.7 1.8 4.5 0.1 6.2L767 464.3c-0.9 0.9-2.1 1.4-3.2 1.4zM725.1 437.3c-0.7 0-1.4-0.2-2.1-0.5-2.1-1.2-2.9-3.8-1.7-6l13.9-25.4c1.2-2.1 3.8-2.9 6-1.7 2.1 1.2 2.9 3.8 1.7 6l-14 25.3c-0.8 1.5-2.3 2.3-3.8 2.3z" fill="#333336" /><path d="M812.9 547.9c-1.9 0-3.6-1.2-4.2-3.2-0.7-2.3 0.7-4.8 3-5.4l25.7-7.5c2.3-0.7 4.8 0.7 5.4 3 0.7 2.3-0.7 4.8-3 5.4l-25.7 7.5c-0.3 0.1-0.8 0.2-1.2 0.2zM681 418c-0.3 0-0.7 0-1-0.1-2.4-0.6-3.8-2.9-3.2-5.3l6.6-27.1c0.6-2.4 3-3.8 5.3-3.2 2.4 0.6 3.8 2.9 3.2 5.3l-6.6 27.1c-0.5 1.9-2.3 3.3-4.3 3.3z" fill="#333336" /></svg>