<?xml version="1.0" encoding="utf-8"?>
<!-- Uploaded to: SVG Repo, www.svgrepo.com, Generator: SVG Repo Mixer Tools -->
<svg width="800px" height="800px" viewBox="0 0 1024 1024" class="icon"  version="1.1" xmlns="http://www.w3.org/2000/svg"><path d="M891 230.5V596c0 35.5-28.8 64.3-64.3 64.3H460.9c-0.7-4.4-1.3-6.9-1.3-7.1V649h355.8c35.5 0 64.3-28.8 64.3-64.2v-343c0-28.1-22.8-50.8-50.9-50.8H321.6c-27.4 0-49.7 22.2-49.7 49.7v225.4h-0.2l-7.6-8.4-3.5 3.2V229.4c0-27.4 22.2-49.7 49.7-49.7h529.8c28.1 0 50.9 22.7 50.9 50.8z" fill="#01A8C2" /><path d="M879.7 241.8v342.9c0 35.5-28.8 64.2-64.3 64.2H362.9c-0.6-14.3-2.7-26.5-4-32.7 34.7-17.9 52.8-38.5 53.7-61.2 1.5-37.4-44-65.2-46-66.3l-3.7-2.2-90.9 88.1v-334c0-27.4 22.2-49.7 49.7-49.7h507.2c28.1 0.1 50.8 22.8 50.8 50.9z" fill="#8CDDE4" /><path d="M460.9 660.3c3.3 22 7.7 90.5-54.6 141.2h-18.9c72.6-49.4 65.2-122.9 62.1-141.2h11.4zM460.9 660.3h-11.4c-0.4-2.6-0.8-4.1-0.8-4.2l10.9-2.8c0.1 0.1 0.7 2.6 1.3 7z" fill="#01A8C2" /><path d="M459.6 649v4.2l-10.9 2.8c0 0.1 0.4 1.6 0.8 4.2H363c0.1-3.9 0-7.7-0.1-11.3h96.7zM449.9 801.5v103.1h-11.3v-91.8h-46.3v-0.9c5-3.3 9.7-6.8 14-10.4h43.6z" fill="#01A8C2" /><path d="M449.5 660.3c3.2 18.3 10.5 91.8-62.1 141.2H171.7v-245l89-80.5v109.5l-33.6 32.6 7.9 8.1 38.6-37.4 90.9-88c10.1 7 38 28.5 36.9 53.8-0.8 19.1-18.1 37.2-51.4 53.5l-4.1 2 1.1 4.4c0.2 0.6 15.4 64.1-9.4 95.8-9.2 11.8-23.2 17.7-41.6 17.7v11.3c22 0 39-7.4 50.5-22 12.4-15.8 16.2-37.4 16.6-57h86.4z" fill="#FFF0C2" /><path d="M366.7 488.8c1.9 1.2 47.5 28.9 46 66.3-0.9 22.7-19 43.3-53.7 61.2 1.3 6.3 3.4 18.4 4 32.7h-5v11.3h5.2c-0.4 19.6-4.2 41.3-16.6 57-11.5 14.6-28.5 22-50.5 22V728c18.4 0 32.4-6 41.6-17.7 24.8-31.7 9.6-95.2 9.4-95.8l-1.1-4.4 4.1-2c33.3-16.4 50.6-34.4 51.4-53.5 1-25.3-26.8-46.8-36.9-53.8l-90.9 88-1.6-1.6v-12.5l90.9-88.1 3.7 2.2zM387.5 801.5h18.9c-4.3 3.6-9 7-14 10.4l-6.3-9.4c0.4-0.3 0.9-0.7 1.4-1z" fill="#01A8C2" /><path d="M392.3 811.9v0.9h-246v84.7H135v-96h25.4v5.7h11.3v-5.7h215.7c-0.5 0.3-0.9 0.6-1.4 0.9l6.3 9.5zM362.9 649c0.2 3.6 0.2 7.4 0.1 11.3h-5.2V649h5.1zM272 587.2l1.6 1.6-38.6 37.4-7.9-8.1 33.6-32.5v1.6z" fill="#01A8C2" /><path d="M272 574.6v12.6h-11.3v-1.6z" fill="#01A8C2" /><path d="M272 466v108.6l-11.3 11V476.1l11.1-10.1z" fill="#01A8C2" /><path d="M264.2 457.6l7.6 8.4-11.1 10.1v-15.3zM260.7 460.8v15.3l-89 80.4v245h-11.3v-250zM160.4 801.5h11.3v5.7h-11.3z" fill="#01A8C2" /><path d="M721.5 353.4v38.8c0 8.6-7 15.5-15.5 15.5h-5.2v131.8c0 8.6-7 15.5-15.5 15.5h-219c-8.6 0-15.5-7-15.5-15.5V407.6h-5.2c-8.6 0-15.5-7-15.5-15.5v-38.8c0-8.6 7-15.5 15.5-15.5h49.1c-10.2-5.8-17.1-16.7-17.1-29.3 0-18.6 15.1-33.7 33.7-33.7 11.4 0 19.5 3.5 27.6 10.9-1.8-6.2-1.9-12.9-0.1-19.4 2.5-9 8.4-16.7 16.1-21.2 7.8-4.5 16.9-5.7 25.6-3.4 8.7 2.3 16 7.9 20.5 15.7 6.7 11.6 7.7 23.6 3 37.6 11.3-13.9 20.8-20.2 36.2-20.2 18.6 0 33.7 15.1 33.7 33.7 0 12.5-6.9 23.5-17.1 29.3H706c8.6 0 15.5 7 15.5 15.6z m-4.4 38.7v-38.8c0-6.1-5-11.1-11.1-11.1H597.1v60.9H706c6.1 0.1 11.1-4.9 11.1-11z m-20.7 147.4V407.6h-99.3v142.9h88.2c6.2 0.1 11.1-4.9 11.1-11z m-26.9-230.9c0-16.2-13.1-29.3-29.3-29.3-16.8 0-26.1 8.8-40.4 28.6l-19.8 30h60.3c16.1-0.1 29.2-13.2 29.2-29.3z m-76.6 0c11.4-19.8 12.7-34.5 4.3-49-3.9-6.8-10.2-11.6-17.8-13.6-2.5-0.7-5.1-1-7.6-1-5.1 0-10.1 1.3-14.6 3.9-6.7 3.9-11.8 10.6-14 18.5-2.2 7.9-1.3 16.3 2.6 23l29.7 44 17.4-25.8z m-0.2 242V342.3h-17.2v0.1-0.1h-17.8V550.5h35z m-21-212.8l-19.9-30.1c-14.3-19.7-23.6-28.5-40.4-28.5-16.1 0-29.3 13.1-29.3 29.3 0 16.1 13.1 29.3 29.3 29.3h60.3z m-18.5 212.8v-143h-98v131.8c0 6.1 5 11.1 11.1 11.1h86.9z m0-147.4v-60.9H445.6c-6.1 0-11.1 5-11.1 11.1v38.8c0 6.1 5 11.1 11.1 11.1h107.6z" fill="#EF4668" /><path d="M717.1 353.4v38.8c0 6.1-5 11.1-11.1 11.1H597.2v-60.9H706c6.1-0.1 11.1 4.8 11.1 11z" fill="#FFF0C2" /><path d="M696.4 407.6v131.8c0 6.1-5 11.1-11.1 11.1h-88.2V407.6h99.3z" fill="#FFE085" /><path d="M640.2 279.3c16.2 0 29.3 13.1 29.3 29.3 0 16.1-13.1 29.3-29.3 29.3H580l19.8-30c14.4-19.8 23.6-28.6 40.4-28.6zM597.2 259.6c8.4 14.5 7.1 29.2-4.3 49l-17.4 25.8-29.7-44c-3.8-6.6-4.8-15-2.6-23 2.2-7.9 7.3-14.7 14-18.5 4.5-2.6 9.5-3.9 14.6-3.9 2.5 0 5.1 0.3 7.6 1 7.6 2 13.9 6.9 17.8 13.6zM592.7 430.5v120.1h-35V342.3h35V407.6zM551.8 307.8l19.9 30.1h-60.3c-16.1 0-29.3-13.1-29.3-29.3 0-16.2 13.1-29.3 29.3-29.3 16.9 0 26.1 8.8 40.4 28.5z" fill="#F59A9B" /><path d="M553.2 407.6v142.9h-86.9c-6.1 0-11.1-5-11.1-11.1V407.6h98z" fill="#FFE085" /><path d="M553.2 342.3v60.9H445.7c-6.1 0-11.1-5-11.1-11.1v-38.8c0-6.1 5-11.1 11.1-11.1h107.5z" fill="#FFF0C2" /></svg>