<?xml version="1.0" ?><!-- Uploaded to: SVG Repo, www.svgrepo.com, Generator: SVG Repo Mixer Tools -->
<svg fill="#000000" width="800px" height="800px" viewBox="0 0 24 24" data-name="Layer 1" id="Layer_1" xmlns="http://www.w3.org/2000/svg"><title/><rect height="2.95" transform="translate(-5.07 12.25) rotate(-45)" width="10.49" x="7.01" y="10.78"/><rect height="5.66" transform="translate(-6.92 16.71) rotate(-45)" width="10.49" x="11.46" y="13.88"/><path d="M7.44,4,5,1.59,1.59,5,4,7.43a5.11,5.11,0,0,0,1.27,5.27l.79.79L13.5,6.09l-.79-.79A5.23,5.23,0,0,0,7.44,4ZM5.29,5.29c-.1.1-.17.22-.26.32L4.41,5,5,4.41,5.62,5C5.51,5.12,5.39,5.19,5.29,5.29Z"/></svg>