<?xml version="1.0" ?>
<!DOCTYPE svg  PUBLIC '-//W3C//DTD SVG 1.1//EN'  'http://www.w3.org/Graphics/SVG/1.1/DTD/svg11.dtd'>
<!-- Uploaded to: SVG Repo, www.svgrepo.com, Generator: SVG Repo Mixer Tools -->
<svg width="800px" height="800px" viewBox="0 0 6.82666 6.82666" style="shape-rendering:geometricPrecision; text-rendering:geometricPrecision; image-rendering:optimizeQuality; fill-rule:evenodd; clip-rule:evenodd" xml:space="preserve" xmlns="http://www.w3.org/2000/svg" xmlns:xlink="http://www.w3.org/1999/xlink">
<defs>
<style type="text/css">
   <![CDATA[
    .str0 {stroke:#373435;stroke-width:0.00694488;stroke-linecap:round;stroke-linejoin:round}
    .fil3 {fill:none}
    .fil1 {fill:#C3AE7E}
    .fil2 {fill:#EDEAE3}
    .fil0 {fill:black;fill-rule:nonzero}
   ]]>
  </style>
</defs>
<g id="Layer_x0020_1">
<g id="_407705296">
<path class="fil0" d="M3.64731 0.853331l2.27269 0c0.0294528,0 0.0533346,0.0238819 0.0533346,0.0533346l0 5.01333c0,0.0294528 -0.0238819,0.0533346 -0.0533346,0.0533346l-2.27269 0c-0.0294528,0 -0.0533346,-0.0238819 -0.0533346,-0.0533346l0 -5.01333c0,-0.0294528 0.0238819,-0.0533346 0.0533346,-0.0533346zm2.21935 0.106669l-2.16602 0 0 4.90666 2.16602 0 0 -4.90666z" id="_406544872"/>
<path class="fil0" d="M0.906661 0.853331l2.27269 0c0.0294528,0 0.0533346,0.0238819 0.0533346,0.0533346l0 5.01333c0,0.0294528 -0.0238819,0.0533346 -0.0533346,0.0533346l-2.27269 0c-0.0294528,0 -0.0533346,-0.0238819 -0.0533346,-0.0533346l0 -5.01333c0,-0.0294528 0.0238819,-0.0533346 0.0533346,-0.0533346zm2.21935 0.106669l-2.16602 0 0 4.90666 2.16602 0 0 -4.90666z" id="_406544800"/>
<g>
<path class="fil0" d="M1.66423 4.74666l0.757551 0c0.0294528,0 0.0533346,0.0238819 0.0533346,0.0533346l0 1.12c0,0.0294528 -0.0238819,0.0533346 -0.0533346,0.0533346l-0.757551 0c-0.0294528,0 -0.0533346,-0.0238819 -0.0533346,-0.0533346l0 -1.12c0,-0.0294528 0.0238819,-0.0533346 0.0533346,-0.0533346zm0.704217 0.106669l-0.650882 0 0 1.01333 0.650882 0 0 -1.01333z" id="_406544728"/>
<g>
<path class="fil0" d="M2.32967 1.2l0.426665 0c0.0294528,0 0.0533346,0.0238819 0.0533346,0.0533346l0 0.355555c0,0.0294528 -0.0238819,0.0533346 -0.0533346,0.0533346l-0.426665 0c-0.0294528,0 -0.0533346,-0.0238819 -0.0533346,-0.0533346l0 -0.355555c0,-0.0294528 0.0238819,-0.0533346 0.0533346,-0.0533346zm0.373331 0.106669l-0.319996 0 0 0.248886 0.319996 0 0 -0.248886z" id="_407707072"/>
<path class="fil0" d="M2.32967 1.91111l0.426665 0c0.0294528,0 0.0533346,0.0238819 0.0533346,0.0533346l0 0.355555c0,0.0294528 -0.0238819,0.0533346 -0.0533346,0.0533346l-0.426665 0c-0.0294528,0 -0.0533346,-0.0238819 -0.0533346,-0.0533346l0 -0.355555c0,-0.0294528 0.0238819,-0.0533346 0.0533346,-0.0533346zm0.373331 0.106669l-0.319996 0 0 0.248886 0.319996 0 0 -0.248886z" id="_407707000"/>
<path class="fil0" d="M2.32967 2.62222l0.426665 0c0.0294528,0 0.0533346,0.0238819 0.0533346,0.0533346l0 0.355559c0,0.0294528 -0.0238819,0.0533346 -0.0533346,0.0533346l-0.426665 0c-0.0294528,0 -0.0533346,-0.0238819 -0.0533346,-0.0533346l0 -0.355559c0,-0.0294528 0.0238819,-0.0533346 0.0533346,-0.0533346zm0.373331 0.106669l-0.319996 0 0 0.24889 0.319996 0 0 -0.24889z" id="_407706928"/>
<path class="fil0" d="M2.32967 3.33333l0.426665 0c0.0294528,0 0.0533346,0.0238819 0.0533346,0.0533346l0 0.355555c0,0.0294528 -0.0238819,0.0533346 -0.0533346,0.0533346l-0.426665 0c-0.0294528,0 -0.0533346,-0.0238819 -0.0533346,-0.0533346l0 -0.355555c0,-0.0294528 0.0238819,-0.0533346 0.0533346,-0.0533346zm0.373331 0.106669l-0.319996 0 0 0.248886 0.319996 0 0 -0.248886z" id="_407706856"/>
<g>
<path class="fil0" d="M1.32967 1.2l0.426665 0c0.0294528,0 0.0533346,0.0238819 0.0533346,0.0533346l0 0.355555c0,0.0294528 -0.0238819,0.0533346 -0.0533346,0.0533346l-0.426665 0c-0.0294528,0 -0.0533346,-0.0238819 -0.0533346,-0.0533346l0 -0.355555c0,-0.0294528 0.0238819,-0.0533346 0.0533346,-0.0533346zm0.373331 0.106669l-0.319996 0 0 0.248886 0.319996 0 0 -0.248886z" id="_407706784"/>
<path class="fil0" d="M1.32967 1.91111l0.426665 0c0.0294528,0 0.0533346,0.0238819 0.0533346,0.0533346l0 0.355555c0,0.0294528 -0.0238819,0.0533346 -0.0533346,0.0533346l-0.426665 0c-0.0294528,0 -0.0533346,-0.0238819 -0.0533346,-0.0533346l0 -0.355555c0,-0.0294528 0.0238819,-0.0533346 0.0533346,-0.0533346zm0.373331 0.106669l-0.319996 0 0 0.248886 0.319996 0 0 -0.248886z" id="_407706712"/>
<path class="fil0" d="M1.32967 2.62222l0.426665 0c0.0294528,0 0.0533346,0.0238819 0.0533346,0.0533346l0 0.355559c0,0.0294528 -0.0238819,0.0533346 -0.0533346,0.0533346l-0.426665 0c-0.0294528,0 -0.0533346,-0.0238819 -0.0533346,-0.0533346l0 -0.355559c0,-0.0294528 0.0238819,-0.0533346 0.0533346,-0.0533346zm0.373331 0.106669l-0.319996 0 0 0.24889 0.319996 0 0 -0.24889z" id="_407706640"/>
<path class="fil0" d="M1.32967 3.33333l0.426665 0c0.0294528,0 0.0533346,0.0238819 0.0533346,0.0533346l0 0.355555c0,0.0294528 -0.0238819,0.0533346 -0.0533346,0.0533346l-0.426665 0c-0.0294528,0 -0.0533346,-0.0238819 -0.0533346,-0.0533346l0 -0.355555c0,-0.0294528 0.0238819,-0.0533346 0.0533346,-0.0533346zm0.373331 0.106669l-0.319996 0 0 0.248886 0.319996 0 0 -0.248886z" id="_407706544"/>
<path class="fil0" d="M1.32967 4.04444l0.426665 0c0.0294528,0 0.0533346,0.0238819 0.0533346,0.0533346l0 0.355555c0,0.0294528 -0.0238819,0.0533346 -0.0533346,0.0533346l-0.426665 0c-0.0294528,0 -0.0533346,-0.0238819 -0.0533346,-0.0533346l0 -0.355555c0,-0.0294528 0.0238819,-0.0533346 0.0533346,-0.0533346zm0.373331 0.106669l-0.319996 0 0 0.248886 0.319996 0 0 -0.248886z" id="_407706496"/>
</g>
<path class="fil0" d="M2.32967 4.04444l0.426665 0c0.0294528,0 0.0533346,0.0238819 0.0533346,0.0533346l0 0.355555c0,0.0294528 -0.0238819,0.0533346 -0.0533346,0.0533346l-0.426665 0c-0.0294528,0 -0.0533346,-0.0238819 -0.0533346,-0.0533346l0 -0.355555c0,-0.0294528 0.0238819,-0.0533346 0.0533346,-0.0533346zm0.373331 0.106669l-0.319996 0 0 0.248886 0.319996 0 0 -0.248886z" id="_407706400"/>
</g>
</g>
<g>
<path class="fil0" d="M4.40488 4.74666l0.757551 0c0.0294528,0 0.0533346,0.0238819 0.0533346,0.0533346l0 1.12c0,0.0294528 -0.0238819,0.0533346 -0.0533346,0.0533346l-0.757551 0c-0.0294528,0 -0.0533346,-0.0238819 -0.0533346,-0.0533346l0 -1.12c0,-0.0294528 0.0238819,-0.0533346 0.0533346,-0.0533346zm0.704217 0.106669l-0.650882 0 0 1.01333 0.650882 0 0 -1.01333z" id="_407706208"/>
<g>
<path class="fil0" d="M5.07032 1.2l0.426665 0c0.0294528,0 0.0533346,0.0238819 0.0533346,0.0533346l0 0.355555c0,0.0294528 -0.0238819,0.0533346 -0.0533346,0.0533346l-0.426665 0c-0.0294528,0 -0.0533346,-0.0238819 -0.0533346,-0.0533346l0 -0.355555c0,-0.0294528 0.0238819,-0.0533346 0.0533346,-0.0533346zm0.373331 0.106669l-0.319996 0 0 0.248886 0.319996 0 0 -0.248886z" id="_407706136"/>
<path class="fil0" d="M5.07032 1.91111l0.426665 0c0.0294528,0 0.0533346,0.0238819 0.0533346,0.0533346l0 0.355555c0,0.0294528 -0.0238819,0.0533346 -0.0533346,0.0533346l-0.426665 0c-0.0294528,0 -0.0533346,-0.0238819 -0.0533346,-0.0533346l0 -0.355555c0,-0.0294528 0.0238819,-0.0533346 0.0533346,-0.0533346zm0.373331 0.106669l-0.319996 0 0 0.248886 0.319996 0 0 -0.248886z" id="_407706064"/>
<path class="fil0" d="M5.07032 2.62222l0.426665 0c0.0294528,0 0.0533346,0.0238819 0.0533346,0.0533346l0 0.355559c0,0.0294528 -0.0238819,0.0533346 -0.0533346,0.0533346l-0.426665 0c-0.0294528,0 -0.0533346,-0.0238819 -0.0533346,-0.0533346l0 -0.355559c0,-0.0294528 0.0238819,-0.0533346 0.0533346,-0.0533346zm0.373331 0.106669l-0.319996 0 0 0.24889 0.319996 0 0 -0.24889z" id="_407705992"/>
<path class="fil0" d="M5.07032 3.33333l0.426665 0c0.0294528,0 0.0533346,0.0238819 0.0533346,0.0533346l0 0.355555c0,0.0294528 -0.0238819,0.0533346 -0.0533346,0.0533346l-0.426665 0c-0.0294528,0 -0.0533346,-0.0238819 -0.0533346,-0.0533346l0 -0.355555c0,-0.0294528 0.0238819,-0.0533346 0.0533346,-0.0533346zm0.373331 0.106669l-0.319996 0 0 0.248886 0.319996 0 0 -0.248886z" id="_407705920"/>
<g>
<path class="fil0" d="M4.07032 1.2l0.426665 0c0.0294528,0 0.0533346,0.0238819 0.0533346,0.0533346l0 0.355555c0,0.0294528 -0.0238819,0.0533346 -0.0533346,0.0533346l-0.426665 0c-0.0294528,0 -0.0533346,-0.0238819 -0.0533346,-0.0533346l0 -0.355555c0,-0.0294528 0.0238819,-0.0533346 0.0533346,-0.0533346zm0.373331 0.106669l-0.319996 0 0 0.248886 0.319996 0 0 -0.248886z" id="_407705848"/>
<path class="fil0" d="M4.07032 1.91111l0.426665 0c0.0294528,0 0.0533346,0.0238819 0.0533346,0.0533346l0 0.355555c0,0.0294528 -0.0238819,0.0533346 -0.0533346,0.0533346l-0.426665 0c-0.0294528,0 -0.0533346,-0.0238819 -0.0533346,-0.0533346l0 -0.355555c0,-0.0294528 0.0238819,-0.0533346 0.0533346,-0.0533346zm0.373331 0.106669l-0.319996 0 0 0.248886 0.319996 0 0 -0.248886z" id="_407705776"/>
<path class="fil0" d="M4.07032 2.62222l0.426665 0c0.0294528,0 0.0533346,0.0238819 0.0533346,0.0533346l0 0.355559c0,0.0294528 -0.0238819,0.0533346 -0.0533346,0.0533346l-0.426665 0c-0.0294528,0 -0.0533346,-0.0238819 -0.0533346,-0.0533346l0 -0.355559c0,-0.0294528 0.0238819,-0.0533346 0.0533346,-0.0533346zm0.373331 0.106669l-0.319996 0 0 0.24889 0.319996 0 0 -0.24889z" id="_407705704"/>
<path class="fil0" d="M4.07032 3.33333l0.426665 0c0.0294528,0 0.0533346,0.0238819 0.0533346,0.0533346l0 0.355555c0,0.0294528 -0.0238819,0.0533346 -0.0533346,0.0533346l-0.426665 0c-0.0294528,0 -0.0533346,-0.0238819 -0.0533346,-0.0533346l0 -0.355555c0,-0.0294528 0.0238819,-0.0533346 0.0533346,-0.0533346zm0.373331 0.106669l-0.319996 0 0 0.248886 0.319996 0 0 -0.248886z" id="_407705608"/>
<path class="fil0" d="M4.07032 4.04444l0.426665 0c0.0294528,0 0.0533346,0.0238819 0.0533346,0.0533346l0 0.355555c0,0.0294528 -0.0238819,0.0533346 -0.0533346,0.0533346l-0.426665 0c-0.0294528,0 -0.0533346,-0.0238819 -0.0533346,-0.0533346l0 -0.355555c0,-0.0294528 0.0238819,-0.0533346 0.0533346,-0.0533346zm0.373331 0.106669l-0.319996 0 0 0.248886 0.319996 0 0 -0.248886z" id="_407705560"/>
</g>
<path class="fil0" d="M5.07032 4.04444l0.426665 0c0.0294528,0 0.0533346,0.0238819 0.0533346,0.0533346l0 0.355555c0,0.0294528 -0.0238819,0.0533346 -0.0533346,0.0533346l-0.426665 0c-0.0294528,0 -0.0533346,-0.0238819 -0.0533346,-0.0533346l0 -0.355555c0,-0.0294528 0.0238819,-0.0533346 0.0533346,-0.0533346zm0.373331 0.106669l-0.319996 0 0 0.248886 0.319996 0 0 -0.248886z" id="_407705488"/>
</g>
</g>
</g>
<path class="fil1 str0" d="M2.27633 3.38667c0,-0.0294528 0.0238819,-0.0533346 0.0533346,-0.0533346l0.426665 0c0.0294528,0 0.0533346,0.0238819 0.0533346,0.0533346l0 0.355555c0,0.0294528 -0.0238819,0.0533346 -0.0533346,0.0533346l-0.426665 0c-0.0294528,0 -0.0533346,-0.0238819 -0.0533346,-0.0533346l0 -0.355555zm0.849677 2.48l0 -4.90666 -2.16602 0 0 4.90666 0.650898 0 0 -1.06667c0,-0.0294528 0.0238819,-0.0533346 0.0533346,-0.0533346l0.757551 0c0.0294528,0 0.0533346,0.0238819 0.0533346,0.0533346l0 1.06667 0.650898 0zm-0.796343 -1.82222l0.426665 0c0.0294528,0 0.0533346,0.0238819 0.0533346,0.0533346l0 0.355555c0,0.0294528 -0.0238819,0.0533346 -0.0533346,0.0533346l-0.426665 0c-0.0294528,0 -0.0533346,-0.0238819 -0.0533346,-0.0533346l0 -0.355555c0,-0.0294528 0.0238819,-0.0533346 0.0533346,-0.0533346zm-0.519996 -0.657776l0 0.355555c0,0.0294528 -0.0238819,0.0533346 -0.0533346,0.0533346l-0.426665 0c-0.0294528,0 -0.0533346,-0.0238819 -0.0533346,-0.0533346l0 -0.355555c0,-0.0294528 0.0238819,-0.0533346 0.0533346,-0.0533346l0.426665 0c0.0294528,0 0.0533346,0.0238819 0.0533346,0.0533346zm-0.48 0.657776l0.426665 0c0.0294528,0 0.0533346,0.0238819 0.0533346,0.0533346l0 0.355555c0,0.0294528 -0.0238819,0.0533346 -0.0533346,0.0533346l-0.426665 0c-0.0294528,0 -0.0533346,-0.0238819 -0.0533346,-0.0533346l0 -0.355555c0,-0.0294528 0.0238819,-0.0533346 0.0533346,-0.0533346zm0.48 -1.01333c0,0.0294528 -0.0238819,0.0533346 -0.0533346,0.0533346l-0.426665 0c-0.0294528,0 -0.0533346,-0.0238819 -0.0533346,-0.0533346l0 -0.355559c0,-0.0294528 0.0238819,-0.0533346 0.0533346,-0.0533346l0.426665 0c0.0294528,0 0.0533346,0.0238819 0.0533346,0.0533346l0 0.355559zm-0.0533346 -0.65778l-0.426665 0c-0.0294528,0 -0.0533346,-0.0238819 -0.0533346,-0.0533346l0 -0.355555c0,-0.0294528 0.0238819,-0.0533346 0.0533346,-0.0533346l0.426665 0c0.0294528,0 0.0533346,0.0238819 0.0533346,0.0533346l0 0.355555c0,0.0294528 -0.0238819,0.0533346 -0.0533346,0.0533346zm0 -0.71111l-0.426665 0c-0.0294528,0 -0.0533346,-0.0238819 -0.0533346,-0.0533346l0 -0.355555c0,-0.0294528 0.0238819,-0.0533346 0.0533346,-0.0533346l0.426665 0c0.0294528,0 0.0533346,0.0238819 0.0533346,0.0533346l0 0.355555c0,0.0294528 -0.0238819,0.0533346 -0.0533346,0.0533346zm0.519996 1.36889l0 -0.355559c0,-0.0294528 0.0238819,-0.0533346 0.0533346,-0.0533346l0.426665 0c0.0294528,0 0.0533346,0.0238819 0.0533346,0.0533346l0 0.355559c0,0.0294528 -0.0238819,0.0533346 -0.0533346,0.0533346l-0.426665 0c-0.0294528,0 -0.0533346,-0.0238819 -0.0533346,-0.0533346zm0.0533346 -0.65778c-0.0294528,0 -0.0533346,-0.0238819 -0.0533346,-0.0533346l0 -0.355555c0,-0.0294528 0.0238819,-0.0533346 0.0533346,-0.0533346l0.426665 0c0.0294528,0 0.0533346,0.0238819 0.0533346,0.0533346l0 0.355555c0,0.0294528 -0.0238819,0.0533346 -0.0533346,0.0533346l-0.426665 0zm0.426665 -0.71111l-0.426665 0c-0.0294528,0 -0.0533346,-0.0238819 -0.0533346,-0.0533346l0 -0.355555c0,-0.0294528 0.0238819,-0.0533346 0.0533346,-0.0533346l0.426665 0c0.0294528,0 0.0533346,0.0238819 0.0533346,0.0533346l0 0.355555c0,0.0294528 -0.0238819,0.0533346 -0.0533346,0.0533346z"/>
<path class="fil1 str0" d="M4.55032 3.38667l0 0.355555c0,0.0294528 -0.0238819,0.0533346 -0.0533346,0.0533346l-0.426665 0c-0.0294528,0 -0.0533346,-0.0238819 -0.0533346,-0.0533346l0 -0.355555c0,-0.0294528 0.0238819,-0.0533346 0.0533346,-0.0533346l0.426665 0c0.0294528,0 0.0533346,0.0238819 0.0533346,0.0533346zm-0.849677 -2.42667l0 4.90666 0.650898 0 0 -1.06667c0,-0.0294528 0.0238819,-0.0533346 0.0533346,-0.0533346l0.757551 0c0.0294528,0 0.0533346,0.0238819 0.0533346,0.0533346l0 1.06667 0.650898 0 0 -4.90666 -2.16602 0zm1.31634 2.78222l0 -0.355555c0,-0.0294528 0.0238819,-0.0533346 0.0533346,-0.0533346l0.426665 0c0.0294528,0 0.0533346,0.0238819 0.0533346,0.0533346l0 0.355555c0,0.0294528 -0.0238819,0.0533346 -0.0533346,0.0533346l-0.426665 0c-0.0294528,0 -0.0533346,-0.0238819 -0.0533346,-0.0533346zm0.0533346 0.30222l0.426665 0c0.0294528,0 0.0533346,0.0238819 0.0533346,0.0533346l0 0.355555c0,0.0294528 -0.0238819,0.0533346 -0.0533346,0.0533346l-0.426665 0c-0.0294528,0 -0.0533346,-0.0238819 -0.0533346,-0.0533346l0 -0.355555c0,-0.0294528 0.0238819,-0.0533346 0.0533346,-0.0533346zm-0.999996 0l0.426665 0c0.0294528,0 0.0533346,0.0238819 0.0533346,0.0533346l0 0.355555c0,0.0294528 -0.0238819,0.0533346 -0.0533346,0.0533346l-0.426665 0c-0.0294528,0 -0.0533346,-0.0238819 -0.0533346,-0.0533346l0 -0.355555c0,-0.0294528 0.0238819,-0.0533346 0.0533346,-0.0533346zm0.48 -1.01333c0,0.0294528 -0.0238819,0.0533346 -0.0533346,0.0533346l-0.426665 0c-0.0294528,0 -0.0533346,-0.0238819 -0.0533346,-0.0533346l0 -0.355559c0,-0.0294528 0.0238819,-0.0533346 0.0533346,-0.0533346l0.426665 0c0.0294528,0 0.0533346,0.0238819 0.0533346,0.0533346l0 0.355559zm-0.0533346 -0.65778l-0.426665 0c-0.0294528,0 -0.0533346,-0.0238819 -0.0533346,-0.0533346l0 -0.355555c0,-0.0294528 0.0238819,-0.0533346 0.0533346,-0.0533346l0.426665 0c0.0294528,0 0.0533346,0.0238819 0.0533346,0.0533346l0 0.355555c0,0.0294528 -0.0238819,0.0533346 -0.0533346,0.0533346zm0 -0.71111l-0.426665 0c-0.0294528,0 -0.0533346,-0.0238819 -0.0533346,-0.0533346l0 -0.355555c0,-0.0294528 0.0238819,-0.0533346 0.0533346,-0.0533346l0.426665 0c0.0294528,0 0.0533346,0.0238819 0.0533346,0.0533346l0 0.355555c0,0.0294528 -0.0238819,0.0533346 -0.0533346,0.0533346zm0.573331 1.42222c-0.0294528,0 -0.0533346,-0.0238819 -0.0533346,-0.0533346l0 -0.355559c0,-0.0294528 0.0238819,-0.0533346 0.0533346,-0.0533346l0.426665 0c0.0294528,0 0.0533346,0.0238819 0.0533346,0.0533346l0 0.355559c0,0.0294528 -0.0238819,0.0533346 -0.0533346,0.0533346l-0.426665 0zm0.426665 -0.711114l-0.426665 0c-0.0294528,0 -0.0533346,-0.0238819 -0.0533346,-0.0533346l0 -0.355555c0,-0.0294528 0.0238819,-0.0533346 0.0533346,-0.0533346l0.426665 0c0.0294528,0 0.0533346,0.0238819 0.0533346,0.0533346l0 0.355555c0,0.0294528 -0.0238819,0.0533346 -0.0533346,0.0533346zm0 -0.71111l-0.426665 0c-0.0294528,0 -0.0533346,-0.0238819 -0.0533346,-0.0533346l0 -0.355555c0,-0.0294528 0.0238819,-0.0533346 0.0533346,-0.0533346l0.426665 0c0.0294528,0 0.0533346,0.0238819 0.0533346,0.0533346l0 0.355555c0,0.0294528 -0.0238819,0.0533346 -0.0533346,0.0533346z"/>
<g id="_407704000">
<polygon class="fil2 str0" id="_407705008" points="2.36844,5.86666 2.36844,4.85333 1.71756,4.85333 1.71756,5.86666 "/>
<polygon class="fil2 str0" id="_407704912" points="1.38301,1.55555 1.703,1.55555 1.703,1.30667 1.38301,1.30667 "/>
<polygon class="fil2 str0" id="_407704816" points="2.383,1.30667 2.383,1.55555 2.703,1.55555 2.703,1.30667 "/>
<polygon class="fil2 str0" id="_407704720" points="1.703,2.26666 1.703,2.01778 1.38301,2.01778 1.38301,2.26666 "/>
<polygon class="fil2 str0" id="_407704624" points="2.383,2.01778 2.383,2.26666 2.703,2.26666 2.703,2.01778 "/>
<polygon class="fil2 str0" id="_407704528" points="2.703,2.72889 2.383,2.72889 2.383,2.97778 2.703,2.97778 "/>
<polygon class="fil2 str0" id="_407704432" points="1.703,2.97778 1.703,2.72889 1.38301,2.72889 1.38301,2.97778 "/>
<polygon class="fil2 str0" id="_407704336" points="1.703,3.44 1.38301,3.44 1.38301,3.68889 1.703,3.68889 "/>
<polygon class="fil2 str0" id="_407704240" points="2.383,3.44 2.383,3.68889 2.703,3.68889 2.703,3.44 "/>
<polygon class="fil2 str0" id="_407704144" points="1.703,4.4 1.703,4.15111 1.38301,4.15111 1.38301,4.4 "/>
<polygon class="fil2 str0" id="_407704048" points="2.383,4.15111 2.383,4.4 2.703,4.4 2.703,4.15111 "/>
</g>
<g id="_407702920">
<polygon class="fil2 str0" id="_407703904" points="4.45821,4.85333 4.45821,5.86666 5.10909,5.86666 5.10909,4.85333 "/>
<polygon class="fil2 str0" id="_407703808" points="4.12366,4.15111 4.12366,4.4 4.44365,4.4 4.44365,4.15111 "/>
<polygon class="fil2 str0" id="_407703712" points="5.12365,4.15111 5.12365,4.4 5.44365,4.4 5.44365,4.15111 "/>
<polygon class="fil2 str0" id="_407703616" points="5.12365,3.68889 5.44365,3.68889 5.44365,3.44 5.12365,3.44 "/>
<polygon class="fil2 str0" id="_407703520" points="4.44365,3.68889 4.44365,3.44 4.12366,3.44 4.12366,3.68889 "/>
<polygon class="fil2 str0" id="_407703424" points="4.12366,2.97778 4.44365,2.97778 4.44365,2.72889 4.12366,2.72889 "/>
<polygon class="fil2 str0" id="_407703328" points="5.12365,2.72889 5.12365,2.97778 5.44365,2.97778 5.44365,2.72889 "/>
<polygon class="fil2 str0" id="_407703232" points="4.12366,2.26666 4.44365,2.26666 4.44365,2.01778 4.12366,2.01778 "/>
<polygon class="fil2 str0" id="_407703136" points="5.12365,2.01778 5.12365,2.26666 5.44365,2.26666 5.44365,2.01778 "/>
<polygon class="fil2 str0" id="_407703040" points="4.44365,1.55555 4.44365,1.30667 4.12366,1.30667 4.12366,1.55555 "/>
<polygon class="fil2 str0" id="_407702968" points="5.12365,1.30667 5.12365,1.55555 5.44365,1.55555 5.44365,1.30667 "/>
</g>
</g>
<rect class="fil3" height="6.82666" width="6.82666"/>
</svg>